<svg xmlns="http://www.w3.org/2000/svg" viewBox="87.86508617091428 49.99999999999997 399.2698276581714 475.0094607983626"> <svg xmlns="http://www.w3.org/2000/svg" xmlns:xlink="http://www.w3.org/1999/xlink" version="1.1" id="Layer_1" x="157.86508617091428" y="119.99999999999997" viewBox="232.76536560058594 353.615478515625 133.73243713378906 134.88455200195312" xml:space="preserve" height="261.50351403188085" width="259.26982765817144" preserveAspectRatio="xMinYMin" enable-background="new 0 0 595.3 841.9" style="overflow: visible;"><linearGradient id="SVGID_1_" gradientUnits="userSpaceOnUse" x1="242.3699" y1="407.9415" x2="359.8747" y2="417.4345" style=""><stop offset="0" style="stop-color: #01FDB1;"></stop><stop offset="1" style="stop-color: #15ACD4;"></stop></linearGradient><path class="st0" d="M323.3,358.1c11,4.2,21,11.3,28.8,21.3c22.5,28.6,18.1,69.8-9.5,93.2c6.5-5.8,26.8-27.1,3.6-49.5   c-3.5-3.4-7.5-5.6-11.8-7C345.4,393.1,351,370.5,323.3,358.1z" style="fill: url(#SVGID_1_);"></path><linearGradient id="SVGID_00000143590342157766036760000008544958288913091257_" gradientUnits="userSpaceOnUse" x1="345.201" y1="355.4323" x2="344.5933" y2="430.2765" style=""><stop offset="0" style="stop-color: #5842F5;"></stop><stop offset="1" style="stop-color: #12A4DE;"></stop></linearGradient><path style="opacity: 0.5; fill: url(#SVGID_00000143590342157766036760000008544958288913091257_);" d="M323.3,358.1   c11,4.2,21,11.3,28.8,21.3c22.5,28.6,18.1,69.8-9.5,93.2c6.5-5.8,26.8-27.1,3.6-49.5c-3.5-3.4-7.5-5.6-11.8-7   C345.4,393.1,351,370.5,323.3,358.1z"></path><linearGradient id="SVGID_00000060709228620150613160000003033629246413448124_" gradientUnits="userSpaceOnUse" x1="243.8814" y1="389.232" x2="361.3862" y2="398.725" style=""><stop offset="0" style="stop-color: #01FDB1;"></stop><stop offset="1" style="stop-color: #15ACD4;"></stop></linearGradient><path style="fill: url(#SVGID_00000060709228620150613160000003033629246413448124_);" d="M323.3,358.1   C323.3,358,323.3,358,323.3,358.1c-21.5-8.2-46.6-5.3-65.9,9.9c-12.7,10-20.8,23.6-24.1,38.2l0,0c-7.3,53.7,61.9-3,101.2,9.7   C345.4,393.1,351,370.5,323.3,358.1z"></path><linearGradient id="SVGID_00000104666346896784752290000004865726619034088882_" gradientUnits="userSpaceOnUse" x1="314.1144" y1="481.39" x2="251.2522" y2="476.1805" style=""><stop offset="0" style="stop-color: #01FDB1;"></stop><stop offset="1" style="stop-color: #15ACD4;"></stop></linearGradient><path style="fill: url(#SVGID_00000104666346896784752290000004865726619034088882_);" d="M250.3,467.6c5.8,5.8,13.6,6.5,21.8,6   c7.4,7.5,16.6,13.6,28.7,14.8C282.3,488.9,263.8,481.7,250.3,467.6z"></path><linearGradient id="SVGID_00000183967770463857023800000013311681506266352273_" gradientUnits="userSpaceOnUse" x1="314.1144" y1="481.39" x2="251.2522" y2="476.1805" style=""><stop offset="0" style="stop-color: #5842F5;"></stop><stop offset="1" style="stop-color: #12A4DE;"></stop></linearGradient><path style="opacity: 0.5; fill: url(#SVGID_00000183967770463857023800000013311681506266352273_);" d="M250.3,467.6   c5.8,5.8,13.6,6.5,21.8,6c7.4,7.5,16.6,13.6,28.7,14.8C282.3,488.9,263.8,481.7,250.3,467.6z"></path><linearGradient id="SVGID_00000068661559954774568880000009727678091089689242_" gradientUnits="userSpaceOnUse" x1="351.7793" y1="422.3448" x2="321.1006" y2="481.3867" style=""><stop offset="4.528621e-07" style="stop-color: #5B33F5;"></stop><stop offset="1" style="stop-color: #685FDE;"></stop></linearGradient><path style="fill: url(#SVGID_00000068661559954774568880000009727678091089689242_);" d="M334.4,415.9c4.4,1.4,8.3,3.7,11.8,7   c3,2.9,5.2,5.7,6.9,8.6c0.3,0.6,0.6,1.1,0.9,1.6c0.1,0.2,0.2,0.4,0.3,0.6c0.2,0.5,0.5,1,0.7,1.5c0.7,1.6,1.1,3.1,1.5,4.6   c0.1,0.2,0.1,0.5,0.1,0.7c0.1,0.4,0.1,0.8,0.2,1.1c0,0.2,0.1,0.4,0.1,0.6c0,0.2,0,0.3,0.1,0.5c0,0.3,0.1,0.6,0.1,0.9   c0,0.2,0,0.4,0,0.6c0,0.3,0,0.6,0,0.9c0,0.2,0,0.5,0,0.7c0,1.2-0.1,2.4-0.3,3.5c0,0.3-0.1,0.5-0.1,0.8c-0.8,4-2.4,7.7-4.4,10.9   c-0.2,0.4-0.5,0.8-0.7,1.2c-0.6,0.9-1.3,1.8-1.9,2.7c-0.3,0.3-0.5,0.7-0.8,1c-0.2,0.2-0.4,0.5-0.6,0.7c-0.4,0.5-0.8,0.9-1.2,1.4   c-0.4,0.5-0.9,1-1.3,1.4c-0.4,0.4-0.7,0.8-1.1,1.1c-0.1,0.1-0.3,0.2-0.4,0.4c-0.2,0.2-0.5,0.4-0.7,0.6c-0.3,0.3-0.6,0.6-0.9,0.9   c-0.1,0.1-0.2,0.2-0.3,0.3c-0.2,0.2-0.4,0.3-0.5,0.4c-0.7,0.6-1,0.8-1,0.8c-1.8,1.4-3.7,2.7-5.6,3.9c0,0,0,0-0.1,0.1   c0,0-0.1,0.1-0.2,0.1c-0.9,0.6-1.8,1.1-2.7,1.6c-4,2-11.3,4.2-16.8-2.5C305.2,464.7,322.8,440.2,334.4,415.9z"></path><linearGradient id="SVGID_00000057847367867743821930000005922501951619420576_" gradientUnits="userSpaceOnUse" x1="305.0018" y1="480.5244" x2="258.8971" y2="478.4405" style=""><stop offset="0" style="stop-color: #01FDB1;"></stop><stop offset="1" style="stop-color: #15ACD4;"></stop></linearGradient><path style="fill: url(#SVGID_00000057847367867743821930000005922501951619420576_);" d="M272.1,473.6c14-0.8,29.2-5.3,37.2,5   c2.9,3.7,2.2,6,0.4,7.4c-0.2,0.2-0.4,0.3-0.7,0.5c0,0-0.1,0.1-0.2,0.1c-0.1,0.1-0.2,0.1-0.3,0.2c-0.2,0.1-0.4,0.2-0.6,0.3   c-0.2,0.1-0.3,0.1-0.5,0.2c-0.1,0-0.2,0.1-0.3,0.1c-0.2,0.1-0.3,0.1-0.5,0.2c-1.7,0.5-3.4,0.8-4.6,0.9c-0.1,0-0.3,0-0.4,0   c-0.1,0-0.2,0-0.3,0c-0.4,0-0.6,0-0.6,0C288.8,487.2,279.6,481.1,272.1,473.6z"></path><linearGradient id="SVGID_00000163031765734065118180000016032006393709696176_" gradientUnits="userSpaceOnUse" x1="281.0434" y1="790.2098" x2="323.8755" y2="789.6733" gradientTransform="matrix(-0.6181 -0.7861 0.7861 -0.6181 -183.6709 1181.6284)" style=""><stop offset="4.528621e-07" style="stop-color: #5B33F5;"></stop><stop offset="1" style="stop-color: #685FDE;"></stop></linearGradient><path style="fill: url(#SVGID_00000163031765734065118180000016032006393709696176_);" d="M242.7,435.7c7.9,3.6,16.1,24.6,29.4,37.9   c-8.2,0.5-16.1-0.3-21.8-6c-0.1-0.1-0.2-0.2-0.2-0.2c-0.3-0.3-0.6-0.6-0.9-0.9c0,0-0.1,0-0.1-0.1c-1-1.2-2.1-2.4-3-3.6   c-1-1.3-1.9-2.6-2.8-3.9c0,0-0.1-0.1-0.1-0.1C238.4,451.7,230.4,430.2,242.7,435.7z"></path><linearGradient id="SVGID_00000165918439457875106630000013203235156158378894_" gradientUnits="userSpaceOnUse" x1="327.8442" y1="419.9478" x2="354.3262" y2="442.8699" style=""><stop offset="0" style="stop-color: #3C1CB4; stop-opacity: 0;"></stop><stop offset="0.9898" style="stop-color: #3C1CB4;"></stop></linearGradient><path style="opacity: 0.8; fill: url(#SVGID_00000165918439457875106630000013203235156158378894_);" d="M330.5,423.7   c3.2,0.4,6.6,1.3,10,2.9c19,9.2,14.3,29.1,14.2,29.5c0.8-1.9,1.4-3.9,1.9-6c0.1-0.3,0.1-0.5,0.1-0.8c0.2-1.2,0.3-2.3,0.3-3.5   c0-0.2,0-0.5,0-0.7c0-0.3,0-0.6,0-0.9c0-0.2,0-0.4,0-0.6c0-0.3,0-0.6-0.1-0.9c0-0.2,0-0.3-0.1-0.5c0-0.2-0.1-0.4-0.1-0.6   c0-0.4-0.1-0.8-0.2-1.1c0-0.2-0.1-0.4-0.1-0.7c-0.3-1.5-0.8-3.1-1.5-4.6c-0.2-0.5-0.4-1-0.7-1.5c-0.1-0.2-0.2-0.4-0.3-0.6   c-0.3-0.5-0.6-1.1-0.9-1.6c-1.7-2.8-3.9-5.7-6.9-8.6c-3.5-3.4-7.5-5.6-11.8-7C333.2,418.5,331.9,421.1,330.5,423.7z"></path><linearGradient id="SVGID_00000179641271349049456480000013567387096242551185_" gradientUnits="userSpaceOnUse" x1="275.7364" y1="805.6677" x2="284.8965" y2="785.0031" gradientTransform="matrix(-0.6181 -0.7861 0.7861 -0.6181 -183.6709 1181.6284)" style=""><stop offset="0" style="stop-color: #3C1CB4; stop-opacity: 0;"></stop><stop offset="0.9898" style="stop-color: #3C1CB4;"></stop></linearGradient><path style="opacity: 0.8; fill: url(#SVGID_00000179641271349049456480000013567387096242551185_);" d="M251.9,468.9   c5.6,4.5,12.7,5.1,20.2,4.7c-1.2-1.2-2.4-2.5-3.5-3.8l0,0C268.6,469.8,258.8,473.1,251.9,468.9z"></path></svg> <svg xmlns="http://www.w3.org/2000/svg" y="410.5594600354231" viewBox="3.117941379547119 6.5 105.16205596923828 44.45000076293945" x="234.91897201538086" height="44.45000076293945" width="105.16205596923828" style="overflow: visible;"><g fill="#150B5B" fill-opacity="1" style=""><path d="M16.64 50.95L16.64 50.95Q12.61 50.95 9.18 49.71Q5.76 48.47 3.86 46.57L3.86 46.57Q2.99 45.65 3.14 44.47Q3.28 43.29 4.26 42.54L4.26 42.54Q5.41 41.62 6.53 41.76Q7.66 41.91 8.46 42.77L8.46 42.77Q9.44 43.86 11.60 44.81Q13.76 45.76 16.41 45.76L16.41 45.76Q19.74 45.76 21.50 44.67Q23.26 43.58 23.31 41.85L23.31 41.85Q23.37 40.12 21.67 38.86Q19.98 37.59 15.49 36.78L15.49 36.78Q9.67 35.63 7.05 33.33Q4.43 31.03 4.43 27.69L4.43 27.69Q4.43 24.75 6.16 22.82Q7.89 20.90 10.59 19.95Q13.30 19.00 16.23 19.00L16.23 19.00Q20.03 19.00 22.97 20.21Q25.90 21.41 27.63 23.54L27.63 23.54Q28.44 24.47 28.38 25.47Q28.32 26.48 27.40 27.17L27.40 27.17Q26.48 27.80 25.21 27.57Q23.95 27.34 23.08 26.54L23.08 26.54Q21.64 25.16 19.98 24.64Q18.31 24.12 16.12 24.12L16.12 24.12Q13.59 24.12 11.83 24.98Q10.07 25.85 10.07 27.52L10.07 27.52Q10.07 28.55 10.62 29.39Q11.17 30.22 12.78 30.88Q14.39 31.55 17.50 32.18L17.50 32.18Q21.82 33.04 24.32 34.37Q26.83 35.69 27.92 37.45Q29.01 39.20 29.01 41.50L29.01 41.50Q29.01 44.15 27.60 46.28Q26.19 48.41 23.46 49.68Q20.72 50.95 16.64 50.95ZM42.20 31.03L39.26 31.03Q39.26 27.57 40.96 24.84Q42.66 22.11 45.53 20.49Q48.41 18.88 51.87 18.88L51.87 18.88Q55.32 18.88 57.02 20.00Q58.72 21.13 58.31 22.68L58.31 22.68Q58.14 23.49 57.65 23.92Q57.16 24.35 56.53 24.47Q55.90 24.58 55.15 24.41L55.15 24.41Q51.46 23.66 48.53 24.29Q45.59 24.93 43.89 26.65Q42.20 28.38 42.20 31.03L42.20 31.03ZM39.32 50.72L39.32 50.72Q37.94 50.72 37.19 50.00Q36.44 49.28 36.44 47.84L36.44 47.84L36.44 22.11Q36.44 20.72 37.19 19.98Q37.94 19.23 39.32 19.23L39.32 19.23Q40.76 19.23 41.48 19.95Q42.20 20.67 42.20 22.11L42.20 22.11L42.20 47.84Q42.20 49.22 41.48 49.97Q40.76 50.72 39.32 50.72ZM75.24 50.95L75.24 50.95Q71.04 50.95 67.70 48.84Q64.36 46.74 62.43 43.15Q60.50 39.55 60.50 35.00L60.50 35.00Q60.50 30.45 62.60 26.83Q64.70 23.20 68.30 21.10Q71.90 19.00 76.39 19.00L76.39 19.00Q80.88 19.00 84.45 21.10Q88.02 23.20 90.12 26.83Q92.22 30.45 92.22 35.00L92.22 35.00L89.97 35.00Q89.97 39.55 88.05 43.15Q86.12 46.74 82.78 48.84Q79.44 50.95 75.24 50.95ZM76.39 45.76L76.39 45.76Q79.33 45.76 81.63 44.35Q83.93 42.94 85.25 40.50Q86.58 38.05 86.58 35.00L86.58 35.00Q86.58 31.89 85.25 29.44Q83.93 27.00 81.63 25.59Q79.33 24.18 76.39 24.18L76.39 24.18Q73.51 24.18 71.18 25.59Q68.85 27.00 67.50 29.44Q66.14 31.89 66.14 35.00L66.14 35.00Q66.14 38.05 67.50 40.50Q68.85 42.94 71.18 44.35Q73.51 45.76 76.39 45.76ZM89.28 50.77L89.28 50.77Q88.02 50.77 87.18 49.94Q86.35 49.10 86.35 47.84L86.35 47.84L86.35 39.03L87.44 32.93L92.22 35.00L92.22 47.84Q92.22 49.10 91.39 49.94Q90.55 50.77 89.28 50.77ZM104.48 50.72L104.48 50.72Q103.21 50.72 102.38 49.88Q101.55 49.05 101.55 47.78L101.55 47.78L101.55 22.16Q101.55 20.84 102.38 20.03Q103.21 19.23 104.48 19.23L104.48 19.23Q105.81 19.23 106.61 20.03Q107.42 20.84 107.42 22.16L107.42 22.16L107.42 47.78Q107.42 49.05 106.61 49.88Q105.81 50.72 104.48 50.72ZM104.48 14.10L104.48 14.10Q102.93 14.10 101.80 12.98Q100.68 11.86 100.68 10.30L100.68 10.30Q100.68 8.75 101.80 7.63Q102.93 6.50 104.48 6.50L104.48 6.50Q106.04 6.50 107.16 7.63Q108.28 8.75 108.28 10.30L108.28 10.30Q108.28 11.86 107.16 12.98Q106.04 14.10 104.48 14.10Z" transform="translate(0, 0)"></path></g></svg></svg>
