<?xml version="1.0" encoding="UTF-8" standalone="no"?>
<!-- Created with Inkscape (http://www.inkscape.org/) -->

<svg
   width="68.598488mm"
   height="69.189445mm"
   viewBox="0 0 68.598488 69.189446"
   version="1.1"
   id="svg1014"
   inkscape:version="1.1 (c68e22c387, 2021-05-23)"
   sodipodi:docname="srai-logo-symbol.svg"
   xmlns:inkscape="http://www.inkscape.org/namespaces/inkscape"
   xmlns:sodipodi="http://sodipodi.sourceforge.net/DTD/sodipodi-0.dtd"
   xmlns="http://www.w3.org/2000/svg"
   xmlns:svg="http://www.w3.org/2000/svg">
  <sodipodi:namedview
     id="namedview1016"
     pagecolor="#505050"
     bordercolor="#eeeeee"
     borderopacity="1"
     inkscape:pageshadow="0"
     inkscape:pageopacity="0"
     inkscape:pagecheckerboard="0"
     inkscape:document-units="mm"
     showgrid="false"
     inkscape:zoom="1.8973437"
     inkscape:cx="43.481843"
     inkscape:cy="227.68674"
     inkscape:window-width="1920"
     inkscape:window-height="1122"
     inkscape:window-x="-8"
     inkscape:window-y="-8"
     inkscape:window-maximized="1"
     inkscape:current-layer="layer1"
     width="68.598mm"
     fit-margin-top="0"
     fit-margin-left="0"
     fit-margin-right="0"
     fit-margin-bottom="0" />
  <defs
     id="defs1011">
    <linearGradient
       id="SVGID_1_"
       gradientUnits="userSpaceOnUse"
       x1="242.3699"
       y1="407.9415"
       x2="359.87469"
       y2="417.43451"
       gradientTransform="matrix(0.51295321,0,0,0.51295321,-119.39774,-181.3882)">
      <stop
         offset="0"
         style="stop-color: #01FDB1;"
         id="stop86" />
      <stop
         offset="1"
         style="stop-color: #15ACD4;"
         id="stop88" />
    </linearGradient>
    <linearGradient
       id="SVGID_00000143590342157766036760000008544958288913091257_"
       gradientUnits="userSpaceOnUse"
       x1="345.20099"
       y1="355.43231"
       x2="344.59329"
       y2="430.27649"
       gradientTransform="matrix(0.51295321,0,0,0.51295321,-119.39774,-181.3882)">
      <stop
         offset="0"
         style="stop-color: #5842F5;"
         id="stop93" />
      <stop
         offset="1"
         style="stop-color: #12A4DE;"
         id="stop95" />
    </linearGradient>
    <linearGradient
       id="SVGID_00000060709228620150613160000003033629246413448124_"
       gradientUnits="userSpaceOnUse"
       x1="243.88139"
       y1="389.23199"
       x2="361.3862"
       y2="398.72501"
       gradientTransform="matrix(0.51295321,0,0,0.51295321,-119.39774,-181.3882)">
      <stop
         offset="0"
         style="stop-color: #01FDB1;"
         id="stop100" />
      <stop
         offset="1"
         style="stop-color: #15ACD4;"
         id="stop102" />
    </linearGradient>
    <linearGradient
       id="SVGID_00000104666346896784752290000004865726619034088882_"
       gradientUnits="userSpaceOnUse"
       x1="314.11441"
       y1="481.39001"
       x2="251.2522"
       y2="476.18051"
       gradientTransform="matrix(0.51295321,0,0,0.51295321,-119.39774,-181.3882)">
      <stop
         offset="0"
         style="stop-color: #01FDB1;"
         id="stop107" />
      <stop
         offset="1"
         style="stop-color: #15ACD4;"
         id="stop109" />
    </linearGradient>
    <linearGradient
       id="SVGID_00000183967770463857023800000013311681506266352273_"
       gradientUnits="userSpaceOnUse"
       x1="314.11441"
       y1="481.39001"
       x2="251.2522"
       y2="476.18051"
       gradientTransform="matrix(0.51295321,0,0,0.51295321,-119.39774,-181.3882)">
      <stop
         offset="0"
         style="stop-color: #5842F5;"
         id="stop114" />
      <stop
         offset="1"
         style="stop-color: #12A4DE;"
         id="stop116" />
    </linearGradient>
    <linearGradient
       id="SVGID_00000068661559954774568880000009727678091089689242_"
       gradientUnits="userSpaceOnUse"
       x1="351.7793"
       y1="422.34479"
       x2="321.10059"
       y2="481.38669"
       gradientTransform="matrix(0.51295321,0,0,0.51295321,-119.39774,-181.3882)">
      <stop
         offset="4.528621e-07"
         style="stop-color: #5B33F5;"
         id="stop121" />
      <stop
         offset="1"
         style="stop-color: #685FDE;"
         id="stop123" />
    </linearGradient>
    <linearGradient
       id="SVGID_00000057847367867743821930000005922501951619420576_"
       gradientUnits="userSpaceOnUse"
       x1="305.0018"
       y1="480.52441"
       x2="258.89709"
       y2="478.44049"
       gradientTransform="matrix(0.51295321,0,0,0.51295321,-119.39774,-181.3882)">
      <stop
         offset="0"
         style="stop-color: #01FDB1;"
         id="stop128" />
      <stop
         offset="1"
         style="stop-color: #15ACD4;"
         id="stop130" />
    </linearGradient>
    <linearGradient
       id="SVGID_00000163031765734065118180000016032006393709696176_"
       gradientUnits="userSpaceOnUse"
       x1="281.0434"
       y1="790.20978"
       x2="323.87549"
       y2="789.67328"
       gradientTransform="matrix(-0.31705625,-0.40323235,0.40323235,-0.31705625,-213.61224,424.73176)">
      <stop
         offset="4.528621e-07"
         style="stop-color: #5B33F5;"
         id="stop135" />
      <stop
         offset="1"
         style="stop-color: #685FDE;"
         id="stop137" />
    </linearGradient>
    <linearGradient
       id="SVGID_00000165918439457875106630000013203235156158378894_"
       gradientUnits="userSpaceOnUse"
       x1="327.84421"
       y1="419.94781"
       x2="354.3262"
       y2="442.8699"
       gradientTransform="matrix(0.51295321,0,0,0.51295321,-119.39774,-181.3882)">
      <stop
         offset="0"
         style="stop-color: #3C1CB4; stop-opacity: 0;"
         id="stop142" />
      <stop
         offset="0.9898"
         style="stop-color: #3C1CB4;"
         id="stop144" />
    </linearGradient>
    <linearGradient
       id="SVGID_00000179641271349049456480000013567387096242551185_"
       gradientUnits="userSpaceOnUse"
       x1="275.73639"
       y1="805.66772"
       x2="284.89651"
       y2="785.00311"
       gradientTransform="matrix(-0.31705625,-0.40323235,0.40323235,-0.31705625,-213.61224,424.73176)">
      <stop
         offset="0"
         style="stop-color: #3C1CB4; stop-opacity: 0;"
         id="stop149" />
      <stop
         offset="0.9898"
         style="stop-color: #3C1CB4;"
         id="stop151" />
    </linearGradient>
  </defs>
  <g
     inkscape:label="Layer 1"
     inkscape:groupmode="layer"
     id="layer1">
    <path
       class="st0"
       d="m 46.440029,2.3003446 c 5.64248,2.154404 10.77201,5.796372 14.77305,10.9259034 11.54145,14.670461 9.28445,35.804134 -4.87306,47.80724 3.3342,-2.97513 13.74715,-13.901033 1.84663,-25.391185 -1.79533,-1.744041 -3.84714,-2.872538 -6.05284,-3.590673 5.64248,-11.797923 8.51502,-23.3906654 -5.69378,-29.7512854 z"
       style="overflow:visible;fill:url(#SVGID_1_);stroke-width:0.512953"
       id="path91" />
    <path
       style="overflow:visible;opacity:0.5;fill:url(#SVGID_00000143590342157766036760000008544958288913091257_);stroke-width:0.512953"
       d="m 46.440029,2.3003446 c 5.64248,2.154404 10.77201,5.796372 14.77305,10.9259034 11.54145,14.670461 9.28445,35.804134 -4.87306,47.80724 3.3342,-2.97513 13.74715,-13.901033 1.84663,-25.391185 -1.79533,-1.744041 -3.84714,-2.872538 -6.05284,-3.590673 5.64248,-11.797923 8.51502,-23.3906654 -5.69378,-29.7512854 z"
       id="path98" />
    <path
       style="overflow:visible;fill:url(#SVGID_00000060709228620150613160000003033629246413448124_);stroke-width:0.512953"
       d="m 46.440029,2.3003446 c 0,-0.05129 0,-0.05129 0,0 -11.0285,-4.206216 -23.90362,-2.71865196 -33.80362,5.078237 C 6.1218993,12.508113 1.9669823,19.484277 0.27423736,26.973394 v 0 C -3.4703217,54.518978 32.026039,25.434534 52.185099,31.94904 57.776289,20.253707 60.648829,8.6609646 46.440029,2.3003446 Z"
       id="path105" />
    <path
       style="overflow:visible;fill:url(#SVGID_00000104666346896784752290000004865726619034088882_);stroke-width:0.512953"
       d="m 8.9944393,58.468718 c 2.9751297,2.97513 6.9761697,3.3342 11.1823797,3.07772 3.79586,3.84715 8.51503,6.97617 14.72176,7.59171 -9.48964,0.25648 -18.97927,-3.43679 -25.9041397,-10.66943 z"
       id="path112" />
    <path
       style="overflow:visible;opacity:0.5;fill:url(#SVGID_00000183967770463857023800000013311681506266352273_);stroke-width:0.512953"
       d="m 8.9944393,58.468718 c 2.9751297,2.97513 6.9761697,3.3342 11.1823797,3.07772 3.79586,3.84715 8.51503,6.97617 14.72176,7.59171 -9.48964,0.25648 -18.97927,-3.43679 -25.9041397,-10.66943 z"
       id="path119" />
    <path
       style="overflow:visible;fill:url(#SVGID_00000068661559954774568880000009727678091089689242_);stroke-width:0.512953"
       d="m 52.133809,31.94904 c 2.25699,0.718134 4.25751,1.897927 6.05284,3.590672 1.53886,1.487565 2.66736,2.923834 3.53938,4.411398 0.15389,0.307772 0.30777,0.564248 0.46166,0.820725 0.0513,0.102591 0.10259,0.205181 0.15389,0.307772 0.10259,0.256477 0.25647,0.512953 0.35906,0.76943 0.35907,0.820725 0.56425,1.590155 0.76943,2.359585 0.0513,0.10259 0.0513,0.256476 0.0513,0.359067 0.0513,0.205181 0.0513,0.410362 0.10259,0.564248 0,0.102591 0.0513,0.205182 0.0513,0.307772 0,0.102591 0,0.153886 0.0513,0.256477 0,0.153886 0.0513,0.307772 0.0513,0.461658 0,0.10259 0,0.205181 0,0.307772 0,0.153886 0,0.307772 0,0.461658 0,0.10259 0,0.256476 0,0.359067 0,0.615544 -0.0513,1.231087 -0.15388,1.795336 0,0.153886 -0.0513,0.256477 -0.0513,0.410363 -0.41036,2.051812 -1.23108,3.949738 -2.25699,5.591188 -0.10259,0.20518 -0.25648,0.41036 -0.35907,0.61555 -0.30777,0.46165 -0.66684,0.92331 -0.97461,1.38497 -0.15388,0.15389 -0.25648,0.35907 -0.41036,0.51295 -0.10259,0.10259 -0.20518,0.25648 -0.30777,0.35907 -0.20518,0.25648 -0.41037,0.46166 -0.61555,0.71813 -0.20518,0.25648 -0.46166,0.51296 -0.66684,0.71814 -0.20518,0.20518 -0.35906,0.41036 -0.56424,0.56425 -0.0513,0.0513 -0.15389,0.10259 -0.20519,0.20518 -0.10259,0.10259 -0.25647,0.20518 -0.35906,0.30777 -0.15389,0.15389 -0.30778,0.30777 -0.46166,0.46166 -0.0513,0.0513 -0.10259,0.10259 -0.15389,0.15388 -0.10259,0.10259 -0.20518,0.15389 -0.25647,0.20519 -0.35907,0.30777 -0.51296,0.41036 -0.51296,0.41036 -0.92331,0.71813 -1.89792,1.38497 -2.87253,2.00052 0,0 0,0 -0.0513,0.0513 0,0 -0.0513,0.0513 -0.10259,0.0513 -0.46166,0.30777 -0.92332,0.56424 -1.38497,0.82072 -2.05182,1.02591 -5.79638,2.1544 -8.61762,-1.28238 -5.28342,-6.36062 3.74456,-18.927975 9.69482,-31.392738 z"
       id="path126" />
    <path
       style="overflow:visible;fill:url(#SVGID_00000057847367867743821930000005922501951619420576_);stroke-width:0.512953"
       d="m 20.176819,61.546438 c 7.18135,-0.41036 14.97824,-2.71865 19.08186,2.56477 1.48757,1.89792 1.1285,3.07772 0.20518,3.79585 -0.10259,0.10259 -0.20518,0.15389 -0.35906,0.25648 0,0 -0.0513,0.0513 -0.1026,0.0513 -0.0513,0.0513 -0.10259,0.0513 -0.15388,0.10259 -0.10259,0.0513 -0.20518,0.1026 -0.30777,0.15389 -0.10259,0.0513 -0.15389,0.0513 -0.25648,0.10259 -0.0513,0 -0.10259,0.0513 -0.15389,0.0513 -0.10259,0.0513 -0.15388,0.0513 -0.25647,0.10259 -0.87202,0.25647 -1.74404,0.41036 -2.35959,0.46165 -0.0513,0 -0.15388,0 -0.20518,0 -0.0513,0 -0.10259,0 -0.15388,0 -0.20519,0 -0.30778,0 -0.30778,0 -6.10414,-0.66683 -10.82331,-3.79585 -14.67046,-7.643 z"
       id="path133" />
    <path
       style="overflow:visible;fill:url(#SVGID_00000163031765734065118180000016032006393709696176_);stroke-width:0.512953"
       d="m 5.0959973,42.105513 c 4.052332,1.846632 8.2585417,12.618645 15.0808217,19.440925 -4.20621,0.25648 -8.25854,-0.15388 -11.1823797,-3.07772 -0.0513,-0.0513 -0.10259,-0.10259 -0.10259,-0.10259 -0.15388,-0.15388 -0.30777,-0.30777 -0.46166,-0.46166 0,0 -0.0513,0 -0.0513,-0.0513 -0.51295,-0.61554 -1.0772,-1.23109 -1.53886,-1.84663 -0.51295,-0.66684 -0.97461,-1.33368 -1.43627,-2.00052 0,0 -0.0513,-0.0513 -0.0513,-0.0513 -2.462175,-3.641963 -6.565801,-14.670457 -0.256476,-11.849215 z"
       id="path140" />
    <path
       style="overflow:visible;opacity:0.8;fill:url(#SVGID_00000165918439457875106630000013203235156158378894_);stroke-width:0.512953"
       d="m 50.133289,35.950075 c 1.64145,0.205181 3.38549,0.666839 5.12953,1.487564 9.74611,4.71917 7.33523,14.926939 7.28394,15.13212 0.41036,-0.974611 0.71813,-2.000518 0.97461,-3.077719 0.0513,-0.153886 0.0513,-0.256477 0.0513,-0.410363 0.10259,-0.615544 0.15389,-1.179792 0.15389,-1.795336 0,-0.102591 0,-0.256477 0,-0.359067 0,-0.153886 0,-0.307772 0,-0.461658 0,-0.102591 0,-0.205182 0,-0.307772 0,-0.153886 0,-0.307772 -0.0513,-0.461658 0,-0.102591 0,-0.153886 -0.0513,-0.256477 0,-0.10259 -0.0513,-0.205181 -0.0513,-0.307772 0,-0.205181 -0.0513,-0.410362 -0.10259,-0.564248 0,-0.102591 -0.0513,-0.205182 -0.0513,-0.359067 -0.15389,-0.76943 -0.41036,-1.590155 -0.76943,-2.359585 -0.10259,-0.256477 -0.20518,-0.512953 -0.35907,-0.76943 -0.0513,-0.102591 -0.10259,-0.205181 -0.15389,-0.307772 -0.15388,-0.256477 -0.30777,-0.564249 -0.46165,-0.820725 -0.87202,-1.436269 -2.00052,-2.923833 -3.53938,-4.411398 -1.79534,-1.744041 -3.84715,-2.872538 -6.05285,-3.590672 -0.56425,1.333678 -1.23109,2.667356 -1.94922,4.001035 z"
       id="path147" />
    <path
       style="overflow:visible;opacity:0.8;fill:url(#SVGID_00000179641271349049456480000013567387096242551185_);stroke-width:0.512953"
       d="m 9.8151693,59.135558 c 2.8725397,2.30829 6.5144997,2.61606 10.3616497,2.41088 -0.61554,-0.61554 -1.23109,-1.28238 -1.79533,-1.94922 v 0 c 0,0 -5.02695,1.69275 -8.5663197,-0.46166 z"
       id="path154" />
  </g>
</svg>
